<?xml version="1.0" encoding="UTF-8" standalone="no"?>
<!-- Created with Inkscape (http://www.inkscape.org/) -->

<svg
   width="393.60248"
   height="62.831993"
   viewBox="0 0 104.14066 16.624298"
   version="1.1"
   id="svg5"
   xml:space="preserve"
   inkscape:version="1.2.2 (732a01da63, 2022-12-09)"
   sodipodi:docname="namanGame.svg"
   inkscape:export-filename="namanGame.png"
   inkscape:export-xdpi="96"
   inkscape:export-ydpi="96"
   xmlns:inkscape="http://www.inkscape.org/namespaces/inkscape"
   xmlns:sodipodi="http://sodipodi.sourceforge.net/DTD/sodipodi-0.dtd"
   xmlns="http://www.w3.org/2000/svg"
   xmlns:svg="http://www.w3.org/2000/svg"><sodipodi:namedview
     id="namedview7"
     pagecolor="#ffffff"
     bordercolor="#000000"
     borderopacity="0.25"
     inkscape:showpageshadow="2"
     inkscape:pageopacity="1"
     inkscape:pagecheckerboard="0"
     inkscape:deskcolor="#ffffff"
     inkscape:document-units="mm"
     showgrid="false"
     inkscape:zoom="0.5"
     inkscape:cx="744"
     inkscape:cy="562"
     inkscape:window-width="1920"
     inkscape:window-height="974"
     inkscape:window-x="-11"
     inkscape:window-y="-11"
     inkscape:window-maximized="1"
     inkscape:current-layer="g22950" /><defs
     id="defs2" /><g
     inkscape:groupmode="layer"
     id="layer4"
     inkscape:label="Characters"
     transform="translate(365.76147,217.6222)"><g
       id="g3282"
       inkscape:label="Begin"><path
         id="path3267"
         style="fill:#ffffff;fill-opacity:1;stroke:none;stroke-width:2.59875;stroke-linecap:square;stroke-dashoffset:3.16634;paint-order:markers stroke fill"
         d="m -365.76145,-217.58754 0.0484,6.36254 3.25287,3.06143 -2.67857,2.6771 v 4.47303 h 15.06603 c -0.008,0.0141 8.01081,-2.00108 2.43892,-9.37569 3.18025,-5.29369 -2.84213,-7.44708 -3.2514,-7.19841 z m 3.77893,3.25287 h 11.09714 c 2.43948,1.96108 0,3.08482 0,3.08482 h -8.60998 l -2.48278,2.48274 v -0.13884 l -0.006,0.008 z m 10.45124,6.34498 v 0.13602 h 2.16273 l 0.0226,0.0481 c 0,0 2.16756,1.91328 -0.72626,3.65911 h -11.90524 v -3.34783 z"
         sodipodi:nodetypes="ccccccccccccccccccccccccc"
         inkscape:label="B letter" /><path
         style="fill:#ffffff;fill-opacity:1;stroke:none;stroke-width:2.49718;stroke-linecap:square;stroke-dashoffset:3.16634;paint-order:markers stroke fill"
         d="m -339.1523,-217.45201 v 7.26194 l 2.94151,2.38998 -2.94151,2.29806 0.0459,4.41232 16.17844,0.0918 -0.18367,-3.76887 h -12.68539 v -2.943 h 10.73652 v -3.34751 h -8.5799 l -2.1125,2.64877 v -5.73621 h 12.98363 v -3.47747 z"
         id="path3269"
         inkscape:label="E letter" /><path
         style="fill:#ffffff;fill-opacity:1;stroke:none;stroke-width:2.46953;stroke-linecap:square;stroke-dashoffset:3.16634;paint-order:markers stroke fill"
         d="m -301.15211,-211.7205 h 3.85676 l -0.0965,-2.73191 c -0.30704,-1.6111 -1.23567,-2.64206 -2.82829,-3.05331 h -12.08455 c -2.04973,0.25366 -3.16483,1.44189 -3.76034,3.14973 l -0.19268,8.61343 c 0.67857,2.44252 2.19973,3.71837 3.98529,4.62817 h 9.54554 l 2.49078,-2.49085 1.75167,1.75164 h 1.22125 v -8.2278 h -9.12763 l 2.86043,3.56751 h 2.34619 v 2.1855 h -9.70623 c -1.4205,-0.31591 -1.64405,-0.80281 -1.89627,-1.28561 v -7.52066 c 0.0916,-0.82212 0.49866,-0.82486 0.88389,-0.8839 h 9.91513 c 0.40109,0.0881 0.88965,0.0449 0.82758,0.82758 z"
         id="path3271"
         sodipodi:nodetypes="cccccccccccccccccccccccc"
         inkscape:label="G letter" /><path
         id="path3273"
         style="fill:#ffffff;stroke-width:2.4831;stroke-linecap:square;stroke-dashoffset:3.16634;paint-order:markers stroke fill"
         d="m -290.75162,-217.60503 h 4.0218 v 16.58995 h -4.0218 z"
         inkscape:label="I letter" /><path
         style="fill:#ffffff;fill-opacity:1;stroke:none;stroke-width:2.356;stroke-linecap:square;stroke-dashoffset:3.16634;paint-order:markers stroke fill"
         d="m -280.18013,-201.17008 h 3.55571 v -10.14694 l 15.00361,10.19029 v -3.90266 l -2.8275,-1.63246 2.8275,-2.40029 v -8.37523 h -3.46908 v 10.4133 c -4.96647,-3.59269 -10.22744,-6.7866 -15.12837,-10.46931 z"
         id="path3275"
         sodipodi:nodetypes="cccccccccccc"
         inkscape:label="N letter" /></g></g></svg>
