<?xml version="1.0" encoding="UTF-8" standalone="no"?>
<!-- Created with Inkscape (http://www.inkscape.org/) -->

<svg
   width="596.00543"
   height="215.27051"
   viewBox="0 0 157.6931 56.956987"
   version="1.1"
   id="svg5"
   xml:space="preserve"
   inkscape:version="1.2.2 (732a01da63, 2022-12-09)"
   sodipodi:docname="namanGame.svg"
   inkscape:export-filename="namanGame.png"
   inkscape:export-xdpi="96"
   inkscape:export-ydpi="96"
   xmlns:inkscape="http://www.inkscape.org/namespaces/inkscape"
   xmlns:sodipodi="http://sodipodi.sourceforge.net/DTD/sodipodi-0.dtd"
   xmlns="http://www.w3.org/2000/svg"
   xmlns:svg="http://www.w3.org/2000/svg"><sodipodi:namedview
     id="namedview7"
     pagecolor="#ffffff"
     bordercolor="#000000"
     borderopacity="0.25"
     inkscape:showpageshadow="2"
     inkscape:pageopacity="1"
     inkscape:pagecheckerboard="0"
     inkscape:deskcolor="#ffffff"
     inkscape:document-units="mm"
     showgrid="false"
     inkscape:zoom="1"
     inkscape:cx="-1013.5"
     inkscape:cy="-821"
     inkscape:window-width="1920"
     inkscape:window-height="974"
     inkscape:window-x="-11"
     inkscape:window-y="-11"
     inkscape:window-maximized="1"
     inkscape:current-layer="layer3" /><defs
     id="defs2" /><g
     inkscape:groupmode="layer"
     id="layer3"
     inkscape:label="Layer 1"
     transform="translate(369.64874,210.4947)"><g
       id="g34934"
       inkscape:label="Start Button"
       transform="translate(399.96821,-390.12941)"
       inkscape:export-filename="Web Practice\JARVIS Quiz\svgs\Button.svg"
       inkscape:export-xdpi="96"
       inkscape:export-ydpi="96"><g
         id="g34920"
         transform="matrix(2.7082629,0,0,2.7082629,1087.6209,-355.5121)"
         inkscape:export-filename="Web Practice\JARVIS Quiz\svgs\Button.svg"
         inkscape:export-xdpi="96"
         inkscape:export-ydpi="96"><g
           id="g34878"
           transform="matrix(1.1271786,0,0,1.1271786,79.711552,-25.956672)"
           inkscape:export-filename="Web Practice\JARVIS Quiz\svgs\StripsUpper.svg"
           inkscape:export-xdpi="96"
           inkscape:export-ydpi="96"><path
             style="fill:#02a1ed;fill-opacity:1;stroke:none;stroke-width:0.919001;stroke-linecap:square;stroke-dashoffset:3.16634;paint-order:markers stroke fill"
             d="m -667.53869,199.12464 h 1.28625 l -3.06359,2.33861 h -1.44994 c 1.06061,-0.79971 2.14927,-1.56244 3.22728,-2.33861 z"
             id="path34870"
             sodipodi:nodetypes="ccccc" /><path
             style="fill:#02a1ed;fill-opacity:1;stroke:none;stroke-width:0.919001;stroke-linecap:square;stroke-dashoffset:3.16634;paint-order:markers stroke fill"
             d="m -664.89728,199.12464 h 1.28625 l -3.06359,2.33861 h -1.44994 c 1.06061,-0.79971 2.14927,-1.56244 3.22728,-2.33861 z"
             id="path34872"
             sodipodi:nodetypes="ccccc" /><path
             style="fill:#02a1ed;fill-opacity:1;stroke:none;stroke-width:0.919001;stroke-linecap:square;stroke-dashoffset:3.16634;paint-order:markers stroke fill"
             d="m -662.25586,199.12464 h 1.28625 l -3.06359,2.33861 h -1.44994 c 1.06061,-0.79971 2.14927,-1.56244 3.22728,-2.33861 z"
             id="path34874"
             sodipodi:nodetypes="ccccc" /><path
             style="fill:#02a1ed;fill-opacity:1;stroke:none;stroke-width:0.919001;stroke-linecap:square;stroke-dashoffset:3.16634;paint-order:markers stroke fill"
             d="m -659.61445,199.12464 h 1.28625 l -3.06359,2.33861 h -1.44994 c 1.06061,-0.79971 2.14927,-1.56244 3.22728,-2.33861 z"
             id="path34876"
             sodipodi:nodetypes="ccccc" /></g><g
           id="g34902"
           transform="translate(3.0740907)"
           inkscape:export-filename="Web Practice\JARVIS Quiz\svgs\StripsLower.svg"
           inkscape:export-xdpi="96"
           inkscape:export-ydpi="96"><path
             style="fill:#02a1ed;fill-opacity:1;stroke:none;stroke-width:0.307722;stroke-linecap:square;stroke-dashoffset:3.16634;paint-order:markers stroke fill"
             d="m -647.28532,216.79748 h 0.43069 l -1.02583,0.78307 h -0.4855 c 0.35514,-0.26778 0.71967,-0.52317 1.08064,-0.78307 z"
             id="path34880"
             sodipodi:nodetypes="ccccc" /><path
             style="fill:#02a1ed;fill-opacity:1;stroke:none;stroke-width:0.307722;stroke-linecap:square;stroke-dashoffset:3.16634;paint-order:markers stroke fill"
             d="m -646.23064,216.79748 h 0.43069 l -1.02583,0.78307 h -0.4855 c 0.35514,-0.26778 0.71967,-0.52317 1.08064,-0.78307 z"
             id="path34882"
             sodipodi:nodetypes="ccccc" /><path
             style="fill:#02a1ed;fill-opacity:1;stroke:none;stroke-width:0.307722;stroke-linecap:square;stroke-dashoffset:3.16634;paint-order:markers stroke fill"
             d="m -645.17595,216.79748 h 0.43069 l -1.02583,0.78307 h -0.4855 c 0.35514,-0.26778 0.71967,-0.52317 1.08064,-0.78307 z"
             id="path34884"
             sodipodi:nodetypes="ccccc" /><path
             style="fill:#02a1ed;fill-opacity:1;stroke:none;stroke-width:0.307722;stroke-linecap:square;stroke-dashoffset:3.16634;paint-order:markers stroke fill"
             d="m -644.12127,216.79748 h 0.43069 l -1.02583,0.78307 h -0.4855 c 0.35514,-0.26778 0.71967,-0.52317 1.08064,-0.78307 z"
             id="path34886"
             sodipodi:nodetypes="ccccc" /><path
             style="fill:#02a1ed;fill-opacity:1;stroke:none;stroke-width:0.307722;stroke-linecap:square;stroke-dashoffset:3.16634;paint-order:markers stroke fill"
             d="m -643.06659,216.79748 h 0.43069 l -1.02583,0.78307 h -0.4855 c 0.35514,-0.26778 0.71967,-0.52317 1.08064,-0.78307 z"
             id="path34888"
             sodipodi:nodetypes="ccccc" /><path
             style="fill:#02a1ed;fill-opacity:1;stroke:none;stroke-width:0.307722;stroke-linecap:square;stroke-dashoffset:3.16634;paint-order:markers stroke fill"
             d="m -642.0119,216.79748 h 0.43069 l -1.02583,0.78307 h -0.4855 c 0.35514,-0.26778 0.71966,-0.52317 1.08064,-0.78307 z"
             id="path34890"
             sodipodi:nodetypes="ccccc" /><path
             style="fill:#02a1ed;fill-opacity:1;stroke:none;stroke-width:0.307722;stroke-linecap:square;stroke-dashoffset:3.16634;paint-order:markers stroke fill"
             d="m -640.95722,216.79748 h 0.43069 l -1.02583,0.78307 h -0.4855 c 0.35514,-0.26778 0.71967,-0.52317 1.08064,-0.78307 z"
             id="path34892"
             sodipodi:nodetypes="ccccc" /><path
             style="fill:#02a1ed;fill-opacity:1;stroke:none;stroke-width:0.307722;stroke-linecap:square;stroke-dashoffset:3.16634;paint-order:markers stroke fill"
             d="m -639.90254,216.79748 h 0.43069 l -1.02583,0.78307 h -0.4855 c 0.35514,-0.26778 0.71967,-0.52317 1.08064,-0.78307 z"
             id="path34894"
             sodipodi:nodetypes="ccccc" /><path
             style="fill:#02a1ed;fill-opacity:1;stroke:none;stroke-width:0.307722;stroke-linecap:square;stroke-dashoffset:3.16634;paint-order:markers stroke fill"
             d="m -638.84786,216.79748 h 0.43069 l -1.02583,0.78307 h -0.4855 c 0.35514,-0.26778 0.71967,-0.52317 1.08064,-0.78307 z"
             id="path34896"
             sodipodi:nodetypes="ccccc" /><path
             style="fill:#02a1ed;fill-opacity:1;stroke:none;stroke-width:0.307722;stroke-linecap:square;stroke-dashoffset:3.16634;paint-order:markers stroke fill"
             d="m -637.79317,216.79748 h 0.43069 l -1.02583,0.78307 h -0.4855 c 0.35514,-0.26778 0.71967,-0.52317 1.08064,-0.78307 z"
             id="path34898"
             sodipodi:nodetypes="ccccc" /><path
             style="fill:#02a1ed;fill-opacity:1;stroke:none;stroke-width:0.307722;stroke-linecap:square;stroke-dashoffset:3.16634;paint-order:markers stroke fill"
             d="m -636.73849,216.79748 h 0.43069 l -1.02583,0.78307 h -0.4855 c 0.35514,-0.26778 0.71967,-0.52317 1.08064,-0.78307 z"
             id="path34900"
             sodipodi:nodetypes="ccccc" /></g><path
           style="fill:#02a1ed;fill-opacity:1;stroke:none;stroke-width:1.08045;stroke-linecap:square;stroke-dashoffset:3.16634;paint-order:markers stroke fill"
           d="m -685.7672,205.58909 v 9.06391 l 7.43474,3.97563 44.86712,-0.0702 0.58157,-0.72871 h -12.50951 l -1.75907,-1.27267 h -15.4055 l -0.74203,0.92984 h -13.15773 l -0.93449,0.67609 h -1.10197 l -5.43063,-3.13261 v -9.79162 l 6.67529,-3.05507 1.037,0.64395 11.58578,0.0189 9.51001,-4.31398 9.885,-0.28308 1.51924,1.6472 h 11.60473 l 0.81531,-1.18746 2.99902,1.91243 -0.0691,11.99814 -1.2239,-0.21156 -3.81437,2.33861 0.35239,0.9515 h -19.23022 l -2.12989,0.88965 h 1.66645 l 1.19252,-0.49811 h 18.8647 l 5.1442,-3.72167 V 200.645 l -3.68972,-2.66939 h -12.38514 l -0.90452,-0.3778 h -2.87749 l -0.66751,0.48291 h -7.07434 l -8.56615,3.78036 h -13.59267 z"
           id="path34904"
           sodipodi:nodetypes="ccccccccccccccccccccccccccccccccccccccccccc" /></g></g></g></svg>
