<?xml version="1.0" encoding="UTF-8" standalone="no"?>
<!-- Created with Inkscape (http://www.inkscape.org/) -->

<svg
   width="1072.0704"
   height="109.06477"
   viewBox="0 0 283.65197 28.85672"
   version="1.1"
   id="svg5"
   xml:space="preserve"
   inkscape:version="1.2.2 (732a01da63, 2022-12-09)"
   sodipodi:docname="namanGame.svg"
   inkscape:export-filename="namanGame.png"
   inkscape:export-xdpi="96"
   inkscape:export-ydpi="96"
   xmlns:inkscape="http://www.inkscape.org/namespaces/inkscape"
   xmlns:sodipodi="http://sodipodi.sourceforge.net/DTD/sodipodi-0.dtd"
   xmlns="http://www.w3.org/2000/svg"
   xmlns:svg="http://www.w3.org/2000/svg"><sodipodi:namedview
     id="namedview7"
     pagecolor="#ffffff"
     bordercolor="#000000"
     borderopacity="0.25"
     inkscape:showpageshadow="2"
     inkscape:pageopacity="1"
     inkscape:pagecheckerboard="0"
     inkscape:deskcolor="#ffffff"
     inkscape:document-units="mm"
     showgrid="false"
     inkscape:zoom="2"
     inkscape:cx="198.25"
     inkscape:cy="203.5"
     inkscape:window-width="1920"
     inkscape:window-height="974"
     inkscape:window-x="-11"
     inkscape:window-y="-11"
     inkscape:window-maximized="1"
     inkscape:current-layer="layer5" /><defs
     id="defs2" /><g
     inkscape:groupmode="layer"
     id="layer3"
     inkscape:label="Layer 1"
     transform="translate(-112.17401,-96.563785)"><g
       id="g24584"
       inkscape:label="JARVIS text"
       transform="matrix(1.5264221,0,0,1.5264221,678.99473,448.49503)"
       style="stroke:#02a1ed;stroke-width:0.868698;stroke-dasharray:none;stroke-opacity:1"><path
         style="fill:#ffffff;fill-opacity:1;stroke:#02a1ed;stroke-width:0.868698;stroke-linecap:square;stroke-dasharray:none;stroke-dashoffset:3.16634;stroke-opacity:1;paint-order:markers stroke fill"
         d="m -367.91711,-229.62322 h 3.40058 v 13.90334 c -0.97658,2.20249 -3.21461,3.03017 -6.38856,2.83772 v -2.68824 h 2.11357 c 0.64178,-0.23912 0.72518,-0.60096 0.73474,-0.97906 v -8.35526 l 3.02297,-1.95574 -2.88549,-1.84993 z"
         id="path24496"
         sodipodi:nodetypes="ccccccccccc"
         inkscape:label="J letter" /><path
         id="path24498"
         style="fill:#ffffff;fill-opacity:1;stroke:#02a1ed;stroke-width:0.868698;stroke-linecap:square;stroke-dasharray:none;stroke-dashoffset:3.16634;stroke-opacity:1;paint-order:markers stroke fill"
         d="m -336.87257,-229.69953 -2.29346,2.29201 1.91737,2.8908 3.60174,5.42915 -7.26099,-0.0143 3.65925,-5.41442 -3.56338,-0.53832 -7.92029,11.87894 3.55011,0.39675 4.10321,-6.07076 2.61355,3.15042 h 7.06631 l 1.93655,2.92034 h 4.29641 z"
         inkscape:label="A letter" /><path
         id="path24500"
         style="fill:#ffffff;fill-opacity:1;stroke:#02a1ed;stroke-width:0.868698;stroke-linecap:square;stroke-dasharray:none;stroke-dashoffset:3.16634;stroke-opacity:1;paint-order:markers stroke fill"
         d="m -294.04127,-229.48196 -15.29733,0.0434 v 8.50723 l 3.13055,2.2027 -3.17394,2.75272 v 2.97942 h 4.37186 v -5.11778 h 7.02942 l 2.91784,5.05619 h 4.46702 l -3.44542,-5.96722 c 4.06148,-3.12742 4.24384,-6.59643 0,-10.45665 z m -12.01545,3.22572 h 10.29272 c 1.77294,1.58561 2.01109,3.23576 0,5.00442 h -8.3573 l -1.93542,1.93403 z"
         sodipodi:nodetypes="ccccccccccccccccccc"
         inkscape:label="R letter" /><path
         style="fill:#ffffff;fill-opacity:1;stroke:#02a1ed;stroke-width:0.868698;stroke-linecap:square;stroke-dasharray:none;stroke-dashoffset:3.16634;stroke-opacity:1;paint-order:markers stroke fill"
         d="m -274.81164,-230.04035 h 4.34837 l 8.24454,12.10586 8.2793,-12.17542 4.24395,0.27834 -9.18374,12.76681 -2.88731,-0.10437 1.80894,1.80893 -2.50469,2.99166 z"
         id="path24502"
         inkscape:label="V letter" /><path
         id="path24504"
         style="fill:#ffffff;stroke:#02a1ed;stroke-width:0.868698;stroke-linecap:square;stroke-dasharray:none;stroke-dashoffset:3.16634;stroke-opacity:1;paint-order:markers stroke fill"
         d="m -233.91128,-229.45151 h 3.98172 v 16.42457 h -3.98172 z"
         inkscape:label="I letter" /><path
         style="fill:#ffffff;fill-opacity:1;stroke:#02a1ed;stroke-width:0.868698;stroke-linecap:square;stroke-dasharray:none;stroke-dashoffset:3.16634;stroke-opacity:1;paint-order:markers stroke fill"
         d="m -199.8634,-224.45855 h 3.51199 c -0.0292,-2.4046 -0.95307,-4.04228 -2.69903,-4.97533 h -12.62413 c -3.18764,2.32049 -3.18388,7.37993 0,9.82059 h 11.55098 v 3.34938 h -10.40585 v -1.30073 h -3.57704 c -0.273,2.32789 0.90843,3.72345 3.02418,4.52007 h 11.479 c 1.39788,-0.22023 2.45956,-1.02878 3.12176,-2.53644 v -4.74768 c -0.65111,-1.54492 -1.60531,-2.45834 -2.99168,-2.47141 h -4.84526 l -2.08112,2.56896 v -2.47141 h -4.03232 c -0.43945,-0.83143 -0.7674,-1.72416 0,-3.21933 h 10.48276 z"
         id="path24506"
         sodipodi:nodetypes="cccccccccccccccccccccc"
         inkscape:label="S letter" /><rect
         style="fill:#ffffff;fill-opacity:0.994361;stroke:#02a1ed;stroke-width:0.868698;stroke-linecap:square;stroke-dasharray:none;stroke-dashoffset:3.16634;stroke-opacity:1;paint-order:markers stroke fill"
         id="rect24560"
         width="5.0270829"
         height="5.0270829"
         x="-359.13797"
         y="-217.88231" /><rect
         style="fill:#ffffff;fill-opacity:0.994361;stroke:#02a1ed;stroke-width:0.868698;stroke-linecap:square;stroke-dasharray:none;stroke-dashoffset:3.16634;stroke-opacity:1;paint-order:markers stroke fill"
         id="rect24562"
         width="5.0270829"
         height="5.0270829"
         x="-319.78763"
         y="-217.88231" /><rect
         style="fill:#ffffff;fill-opacity:0.994361;stroke:#02a1ed;stroke-width:0.868698;stroke-linecap:square;stroke-dasharray:none;stroke-dashoffset:3.16634;stroke-opacity:1;paint-order:markers stroke fill"
         id="rect24564"
         width="5.0270829"
         height="5.0270829"
         x="-285.21729"
         y="-217.88231" /><rect
         style="fill:#ffffff;fill-opacity:0.994361;stroke:#02a1ed;stroke-width:0.868698;stroke-linecap:square;stroke-dasharray:none;stroke-dashoffset:3.16634;stroke-opacity:1;paint-order:markers stroke fill"
         id="rect24566"
         width="5.0270829"
         height="5.0270829"
         x="-244.31693"
         y="-217.88231" /><rect
         style="fill:#ffffff;fill-opacity:0.994361;stroke:#02a1ed;stroke-width:0.868698;stroke-linecap:square;stroke-dasharray:none;stroke-dashoffset:3.16634;stroke-opacity:1;paint-order:markers stroke fill"
         id="rect24568"
         width="5.0270829"
         height="5.0270829"
         x="-224.55099"
         y="-217.88231" /><rect
         style="fill:#ffffff;fill-opacity:0.994361;stroke:#02a1ed;stroke-width:0.868698;stroke-linecap:square;stroke-dasharray:none;stroke-dashoffset:3.16634;stroke-opacity:1;paint-order:markers stroke fill"
         id="rect24570"
         width="5.0270829"
         height="5.0270829"
         x="-190.97285"
         y="-217.88231" /></g></g></svg>
