<?xml version="1.0" encoding="UTF-8" standalone="no"?>
<!-- Created with Inkscape (http://www.inkscape.org/) -->

<svg
   width="256.34799"
   height="53.30088"
   viewBox="0 0 67.825406 14.102524"
   version="1.1"
   id="svg5"
   xml:space="preserve"
   inkscape:version="1.2.2 (732a01da63, 2022-12-09)"
   sodipodi:docname="namanGame.svg"
   inkscape:export-filename="namanGame.png"
   inkscape:export-xdpi="96"
   inkscape:export-ydpi="96"
   xmlns:inkscape="http://www.inkscape.org/namespaces/inkscape"
   xmlns:sodipodi="http://sodipodi.sourceforge.net/DTD/sodipodi-0.dtd"
   xmlns="http://www.w3.org/2000/svg"
   xmlns:svg="http://www.w3.org/2000/svg"><sodipodi:namedview
     id="namedview7"
     pagecolor="#ffffff"
     bordercolor="#000000"
     borderopacity="0.25"
     inkscape:showpageshadow="2"
     inkscape:pageopacity="1"
     inkscape:pagecheckerboard="0"
     inkscape:deskcolor="#ffffff"
     inkscape:document-units="mm"
     showgrid="false"
     inkscape:zoom="2"
     inkscape:cx="198.25"
     inkscape:cy="203.5"
     inkscape:window-width="1920"
     inkscape:window-height="974"
     inkscape:window-x="-11"
     inkscape:window-y="-11"
     inkscape:window-maximized="1"
     inkscape:current-layer="layer5" /><defs
     id="defs2" /><g
     inkscape:groupmode="layer"
     id="layer3"
     inkscape:label="Layer 1"
     transform="translate(-305.8403,-139.25206)"><g
       id="g29754"
       inkscape:label="Quiz text"
       transform="matrix(0.72086784,0,0,0.72086784,578.78373,304.80963)"><path
         id="path29742"
         style="fill:#ffffff;fill-opacity:1;stroke:none;stroke-width:2.88856;stroke-linecap:square;stroke-dashoffset:3.16634;paint-order:markers stroke fill"
         d="m -374.75125,-229.4192 c -2.24679,0.59793 -3.58442,2.1933 -3.82676,4.99627 l -0.0537,8.98546 c 0.41292,2.96421 1.77029,4.94852 4.78511,5.21066 h 7.81435 l 2.65895,-3.51006 2.55171,3.34925 5.21066,-0.0519 -2.33895,-2.87168 c 0.59698,-0.19393 1.17828,-0.43529 1.38227,-1.80782 v -9.62217 c -0.0871,-2.66083 -1.10919,-4.51573 -4.09478,-4.67792 z m 1.46835,3.55717 h 11.54531 c 1.22898,0.74081 1.07993,1.36728 1.16134,2.01247 v 8.2318 c -0.42606,1.1591 -0.85224,0.9173 -1.27829,1.16623 h -11.8799 c -0.6171,-0.41826 -1.24689,-0.83026 -1.27832,-1.54143 v -7.63083 c 0.22536,-0.95658 0.51988,-1.8725 1.72986,-2.23824 z"
         inkscape:label="Q letter" /><path
         style="fill:#ffffff;fill-opacity:1;stroke:none;stroke-width:2.94393;stroke-linecap:square;stroke-dashoffset:3.16634;paint-order:markers stroke fill"
         d="m -349.04906,-229.2962 h 4.09301 v 6.97312 l -2.91189,2.45208 h 2.72027 v 4.67429 c 0.14896,1.0006 0.6902,1.2725 1.34101,1.341 h 12.29878 c 0.67452,-0.37499 1.07121,-0.98149 1.09581,-1.89806 v -13.4658 h 3.99994 v 13.98454 c -0.27388,3.05045 -1.64995,4.68395 -3.94637,5.13405 h -14.55923 c -2.04913,-0.62081 -3.46127,-2.09646 -4.1379,-4.55934 z"
         id="path29744"
         sodipodi:nodetypes="cccccccccccccccc"
         inkscape:label="U letter" /><path
         id="path29746"
         style="fill:#ffffff;stroke-width:2.88159;stroke-linecap:square;stroke-dashoffset:3.16634;paint-order:markers stroke fill"
         d="m -319.94478,-229.47911 h 4.66722 v 19.25229 h -4.66722 z"
         inkscape:label="I letter" /><path
         style="fill:#ffffff;fill-opacity:1;stroke:none;stroke-width:2.96272;stroke-linecap:square;stroke-dashoffset:3.16634;paint-order:markers stroke fill"
         d="m -307.28206,-229.58244 v 4.03523 h 13.63245 l -15.29567,15.29559 h 5.8075 l 2.79459,-2.79465 2.8492,2.84917 h 10.87867 v -3.95341 h -13.3598 l 15.43196,-15.43193 h -5.61662 l -2.78095,2.78101 -2.86284,-2.86281 z"
         id="path29748"
         inkscape:label="Z letter" /></g></g></svg>
