<?xml version="1.0" encoding="UTF-8" standalone="no"?>
<!-- Created with Inkscape (http://www.inkscape.org/) -->

<svg
   width="351.29163"
   height="48.828377"
   viewBox="0 0 92.945909 12.919174"
   version="1.1"
   id="svg5"
   xml:space="preserve"
   inkscape:version="1.2.2 (732a01da63, 2022-12-09)"
   sodipodi:docname="namanGame.svg"
   inkscape:export-filename="namanGame.png"
   inkscape:export-xdpi="96"
   inkscape:export-ydpi="96"
   xmlns:inkscape="http://www.inkscape.org/namespaces/inkscape"
   xmlns:sodipodi="http://sodipodi.sourceforge.net/DTD/sodipodi-0.dtd"
   xmlns="http://www.w3.org/2000/svg"
   xmlns:svg="http://www.w3.org/2000/svg"><sodipodi:namedview
     id="namedview7"
     pagecolor="#ffffff"
     bordercolor="#000000"
     borderopacity="0.25"
     inkscape:showpageshadow="2"
     inkscape:pageopacity="1"
     inkscape:pagecheckerboard="0"
     inkscape:deskcolor="#ffffff"
     inkscape:document-units="mm"
     showgrid="false"
     inkscape:zoom="0.25"
     inkscape:cx="2"
     inkscape:cy="476"
     inkscape:window-width="1920"
     inkscape:window-height="974"
     inkscape:window-x="-11"
     inkscape:window-y="-11"
     inkscape:window-maximized="1"
     inkscape:current-layer="layer3" /><defs
     id="defs2" /><g
     inkscape:groupmode="layer"
     id="layer3"
     inkscape:label="Layer 1"
     transform="translate(-209.86024,-233.52354)"><g
       id="g22952"
       inkscape:label="Start Button"
       transform="translate(944.77041,29.115211)"
       inkscape:export-filename="JarvisStartButtonResource.png"
       inkscape:export-xdpi="96"
       inkscape:export-ydpi="96"><g
         id="g22023"
         transform="matrix(0.73729841,0,0,0.73729841,-873.27707,52.788461)"><path
           style="fill:#ffffff;fill-opacity:1;stroke:none;stroke-width:2.53578;stroke-linecap:square;stroke-dashoffset:3.16634;paint-order:markers stroke fill"
           d="m 202.16175,211.13642 h 3.56421 c -0.0296,-2.44035 -0.96724,-4.10238 -2.73916,-5.04931 h -12.81184 c -3.23504,2.355 -3.23123,7.48967 0,9.96662 h 11.72273 v 3.39918 h -10.56058 v -1.32007 h -3.63022 c -0.27706,2.3625 0.92193,3.77881 3.06914,4.58728 h 11.64969 c 1.41866,-0.22351 2.49613,-1.04408 3.16818,-2.57416 v -4.81827 c -0.66079,-1.56789 -1.62918,-2.49489 -3.03617,-2.50816 h -4.9173 l -2.11207,2.60716 v -2.50816 h -4.09228 c -0.44598,-0.84379 -0.77881,-1.7498 0,-3.2672 h 10.63864 z"
           id="path21966"
           sodipodi:nodetypes="cccccccccccccccccccccc"
           inkscape:label="S letter" /><path
           style="fill:#ffffff;fill-opacity:1;stroke:none;stroke-width:2.62266;stroke-linecap:square;stroke-dashoffset:3.16634;paint-order:markers stroke fill"
           d="m 212.12274,205.739 v 4.00647 h 10.76437 l -2.53418,2.53424 v 10.88506 h 3.93409 v -13.56411 h 7.86813 v -3.90995 h -5.88904 l -2.70313,3.04108 -2.41358,-3.08933 z"
           id="path21968"
           inkscape:label="T letter" /><path
           id="path21970"
           style="fill:#ffffff;fill-opacity:1;stroke:none;stroke-width:2.62295;stroke-linecap:square;stroke-dashoffset:3.16634;paint-order:markers stroke fill"
           d="m 250.4117,205.94331 -2.29346,2.29201 1.91737,2.8908 3.60174,5.42915 -7.26099,-0.0143 3.65925,-5.41442 -3.56338,-0.53832 -7.92029,11.87894 3.55011,0.39675 4.10321,-6.07076 2.61355,3.15042 h 7.06631 l 1.93655,2.92034 h 4.29641 z"
           inkscape:label="A letter" /><path
           id="path21972"
           style="fill:#ffffff;fill-opacity:1;stroke:none;stroke-width:2.48874;stroke-linecap:square;stroke-dashoffset:3.16634;paint-order:markers stroke fill"
           d="m 283.85558,206.16088 -15.29733,0.0434 v 8.50723 l 3.13055,2.2027 -3.17394,2.75272 v 2.97942 h 4.37186 v -5.11778 h 7.02942 l 2.91784,5.05619 h 4.46702 l -3.44542,-5.96722 c 4.06148,-3.12742 4.24384,-6.59643 0,-10.45665 z m -12.01545,3.22572 h 10.29272 c 1.77294,1.58561 2.01109,3.23576 0,5.00442 h -8.3573 l -1.93542,1.93403 z"
           sodipodi:nodetypes="ccccccccccccccccccc"
           inkscape:label="R letter" /><path
           style="fill:#ffffff;fill-opacity:1;stroke:none;stroke-width:2.62266;stroke-linecap:square;stroke-dashoffset:3.16634;paint-order:markers stroke fill"
           d="m 293.69779,205.739 v 4.00647 h 10.76437 l -2.53418,2.53424 v 10.88506 h 3.93409 v -13.56411 h 7.86813 v -3.90995 h -5.88904 l -2.70313,3.04108 -2.41358,-3.08933 z"
           id="path21974"
           inkscape:label="T letter" /></g></g></g></svg>
