<?xml version="1.0" encoding="UTF-8" standalone="no"?>
<!-- Created with Inkscape (http://www.inkscape.org/) -->

<svg
   width="596.00549"
   height="215.27051"
   viewBox="0 0 157.69312 56.956987"
   version="1.1"
   id="svg5"
   xml:space="preserve"
   inkscape:version="1.2.2 (732a01da63, 2022-12-09)"
   sodipodi:docname="namanGame.svg"
   inkscape:export-filename="namanGame.png"
   inkscape:export-xdpi="96"
   inkscape:export-ydpi="96"
   xmlns:inkscape="http://www.inkscape.org/namespaces/inkscape"
   xmlns:sodipodi="http://sodipodi.sourceforge.net/DTD/sodipodi-0.dtd"
   xmlns="http://www.w3.org/2000/svg"
   xmlns:svg="http://www.w3.org/2000/svg"><sodipodi:namedview
     id="namedview7"
     pagecolor="#ffffff"
     bordercolor="#000000"
     borderopacity="0.25"
     inkscape:showpageshadow="2"
     inkscape:pageopacity="1"
     inkscape:pagecheckerboard="0"
     inkscape:deskcolor="#ffffff"
     inkscape:document-units="mm"
     showgrid="false"
     inkscape:zoom="2"
     inkscape:cx="198.25"
     inkscape:cy="203.5"
     inkscape:window-width="1920"
     inkscape:window-height="974"
     inkscape:window-x="-11"
     inkscape:window-y="-11"
     inkscape:window-maximized="1"
     inkscape:current-layer="layer5" /><defs
     id="defs2" /><g
     inkscape:groupmode="layer"
     id="layer3"
     inkscape:label="Layer 1"
     transform="translate(-175.15344,-208.74993)"><g
       id="g22952"
       inkscape:label="Start Button"
       transform="translate(944.77041,29.115211)"
       inkscape:export-filename="JarvisStartButtonResource.png"
       inkscape:export-xdpi="96"
       inkscape:export-ydpi="96"><g
         id="g23153"
         transform="matrix(2.7082629,0,0,2.7082629,1087.6209,-355.5121)"
         inkscape:export-filename="Web Practice\JARVIS Quiz\svgs\Button.svg"
         inkscape:export-xdpi="96"
         inkscape:export-ydpi="96"><g
           id="g22950"
           inkscape:export-filename="Web Practice\JARVIS Quiz\beginButton.svg"
           inkscape:export-xdpi="96"
           inkscape:export-ydpi="96"><path
             style="fill:#02a1ed;fill-opacity:1;stroke:none;stroke-width:1.08045;stroke-linecap:square;stroke-dashoffset:3.16634;paint-order:markers stroke fill"
             d="m -685.7672,205.58909 v 9.06391 l 7.43474,3.97563 44.86712,-0.0702 0.58157,-0.72871 h -12.50951 l -1.75907,-1.27267 h -15.4055 l -0.74203,0.92984 h -13.15773 l -0.93449,0.67609 h -1.10197 l -5.43063,-3.13261 v -9.79162 l 6.67529,-3.05507 1.037,0.64395 11.58578,0.0189 9.51001,-4.31398 9.885,-0.28308 1.51924,1.6472 h 11.60473 l 0.81531,-1.18746 2.99902,1.91243 -0.0691,11.99814 -1.2239,-0.21156 -3.81437,2.33861 0.35239,0.9515 h -19.23022 l -2.12989,0.88965 h 1.66645 l 1.19252,-0.49811 h 18.8647 l 5.1442,-3.72167 V 200.645 l -3.68972,-2.66939 h -12.38514 l -0.90452,-0.3778 h -2.87749 l -0.66751,0.48291 h -7.07434 l -8.56615,3.78036 h -13.59267 z"
             id="path22946"
             sodipodi:nodetypes="ccccccccccccccccccccccccccccccccccccccccccc"
             inkscape:label="StarButtonShape" /></g></g></g></g></svg>
