<?xml version="1.0" encoding="UTF-8" standalone="no"?>
<!-- Created with Inkscape (http://www.inkscape.org/) -->

<svg
   width="753.31427"
   height="54.654327"
   viewBox="0 0 199.3144 14.460624"
   version="1.1"
   id="svg49952"
   xml:space="preserve"
   inkscape:version="1.2.2 (732a01da63, 2022-12-09)"
   sodipodi:docname="namanGame2.svg"
   inkscape:export-filename="namanGame2.svg"
   inkscape:export-xdpi="96"
   inkscape:export-ydpi="96"
   xmlns:inkscape="http://www.inkscape.org/namespaces/inkscape"
   xmlns:sodipodi="http://sodipodi.sourceforge.net/DTD/sodipodi-0.dtd"
   xmlns="http://www.w3.org/2000/svg"
   xmlns:svg="http://www.w3.org/2000/svg"><sodipodi:namedview
     id="namedview49954"
     pagecolor="#ffffff"
     bordercolor="#000000"
     borderopacity="0.25"
     inkscape:showpageshadow="2"
     inkscape:pageopacity="0.0"
     inkscape:pagecheckerboard="0"
     inkscape:deskcolor="#d1d1d1"
     inkscape:document-units="mm"
     showgrid="false"
     inkscape:zoom="0.5"
     inkscape:cx="892"
     inkscape:cy="518"
     inkscape:window-width="1920"
     inkscape:window-height="974"
     inkscape:window-x="-11"
     inkscape:window-y="-11"
     inkscape:window-maximized="1"
     inkscape:current-layer="layer5" /><defs
     id="defs49949" /><g
     inkscape:label="Layer 1"
     inkscape:groupmode="layer"
     id="layer1"
     transform="translate(-154.343,-14.62)"><g
       id="g3197"><g
         inkscape:groupmode="layer"
         id="layer8"
         inkscape:label="Header"
         transform="matrix(1.3831154,0,0,1.3831154,-83.429281,-9.3043971)"><g
           id="g39629"
           transform="translate(705.16392,-213.02906)"
           style="fill:#02a1ed;fill-opacity:1;stroke:none;stroke-opacity:1"
           inkscape:export-filename="Web Practice\JARVIS Quiz\svgs\Questionsvgs\HeadQuestionDesign.svg"
           inkscape:export-xdpi="96"
           inkscape:export-ydpi="96"><path
             style="fill:#02a1ed;fill-opacity:1;stroke:none;stroke-width:0.174222;stroke-opacity:1"
             d="m -533.22955,240.42705 v -0.35181 l 6.03119,0.0123 6.0312,0.0123 c 1.27028,-1.07931 2.35556,-2.04202 3.61357,-3.14519 l 0.39401,-0.0953 c 0.21671,-0.0524 6.89469,-0.0737 14.83994,-0.0474 l 14.44593,0.0479 0.0726,0.21778 0.0726,0.21778 h -14.70314 -14.70314 c -1.38422,1.1442 -2.71478,2.29589 -4.04926,3.48623 0,0 -4.65172,-0.0311 -6.68813,-0.0237 l -5.35733,0.0209 z m 2.02266,-4.93739 -1.76131,-3.09654 5.38454,0.01 5.38454,0.01 0.4519,0.29608 c 0.24855,0.16284 1.0399,0.76333 1.75857,1.33441 l 1.30666,1.03834 v 0.25875 0.25876 l -1.21955,1.53509 -1.21955,1.53509 -6.06609,0.01 -6.06608,0.01 z m 67.66618,1.89285 -1.29794,-1.30667 h -26.19227 -26.19227 l 0.0546,-0.56622 0.0546,-0.56622 22.47666,-0.0442 22.47665,-0.0442 2.75044,-4.35425 h 8.30662 8.30663 l -1.68415,4.35556 h 7.04865 7.04865 l 0.91891,-1.568 h 25.15854 25.15854 v 0.14004 c 0,0.077 -0.25854,0.39063 -0.57452,0.69689 l -0.57452,0.55684 h -17.63169 -17.63169 l 2.43911,3.91088 c 0,0 -8.80236,0.0962 -19.5608,0.0962 h -19.56079 z m -54.35725,-3.65603 c -0.3354,-0.28603 -1.20505,-1.05042 -1.93255,-1.69866 l -1.32273,-1.17862 h -6.03816 -6.03815 v -0.52267 h 6.07067 6.07066 l 0.94788,0.82756 c 0.52133,0.45515 1.38768,1.20243 1.92523,1.66062 l 0.97735,0.83306 14.52231,-0.004 14.77603,-0.004 0.003,0.39188 c 0,0 -0.34676,0.14026 -14.64953,0.17734 l -14.70176,0.0381 z"
             id="path39542"
             sodipodi:nodetypes="cccccsscccccccccccccsscccccccccccccccccccccccccssccccscccsccccccssccccscc"
             inkscape:export-filename=".\path39542.svg"
             inkscape:export-xdpi="96"
             inkscape:export-ydpi="96" /></g></g></g></g></svg>
