<?xml version="1.0" encoding="UTF-8" standalone="no"?>
<!-- Created with Inkscape (http://www.inkscape.org/) -->

<svg
   width="279.29782"
   height="104.52924"
   viewBox="0 0 73.897548 27.656693"
   version="1.1"
   id="svg49952"
   xml:space="preserve"
   inkscape:version="1.2.2 (732a01da63, 2022-12-09)"
   sodipodi:docname="namanGame2.svg"
   inkscape:export-filename="namanGame2.svg"
   inkscape:export-xdpi="96"
   inkscape:export-ydpi="96"
   xmlns:inkscape="http://www.inkscape.org/namespaces/inkscape"
   xmlns:sodipodi="http://sodipodi.sourceforge.net/DTD/sodipodi-0.dtd"
   xmlns="http://www.w3.org/2000/svg"
   xmlns:svg="http://www.w3.org/2000/svg"><sodipodi:namedview
     id="namedview49954"
     pagecolor="#ffffff"
     bordercolor="#000000"
     borderopacity="0.25"
     inkscape:showpageshadow="2"
     inkscape:pageopacity="0.0"
     inkscape:pagecheckerboard="0"
     inkscape:deskcolor="#d1d1d1"
     inkscape:document-units="mm"
     showgrid="false"
     inkscape:zoom="0.35355339"
     inkscape:cx="434.16356"
     inkscape:cy="203.64675"
     inkscape:window-width="1920"
     inkscape:window-height="974"
     inkscape:window-x="-11"
     inkscape:window-y="-11"
     inkscape:window-maximized="1"
     inkscape:current-layer="layer4" /><defs
     id="defs49949" /><g
     inkscape:label="Layer 1"
     inkscape:groupmode="layer"
     id="layer1"
     transform="translate(-388.1395,-217.98757)"><g
       id="g3197"><g
         inkscape:groupmode="layer"
         id="layer4"
         inkscape:label="Option"
         transform="translate(-3.176614e-4,-2.5835622e-5)"><g
           id="g5839"
           inkscape:label="Next Button"
           transform="matrix(0.53611049,0,0,0.53611049,570.76431,268.98003)"><path
             style="fill:#33343d;fill-opacity:1;stroke:#02a1ed;stroke-width:0.786;stroke-linecap:square;stroke-opacity:1;paint-order:markers stroke fill"
             d="m -340.25416,-94.720832 v 38.099999 l 12.7,12.7 H -203.2 v -40.745833 l -12.7,-9.524999 z"
             id="path2548"
             sodipodi:nodetypes="ccccccc"
             inkscape:export-filename="Web Practice\JARVIS Quiz\svgs\Questionsvgs\Next Button.svg"
             inkscape:export-xdpi="96"
             inkscape:export-ydpi="96" /><g
             id="g4456"
             inkscape:label="Arrow"
             transform="matrix(1.2298624,0,0,1.2298624,-800.65622,-382.85296)"><path
               id="rect1380"
               style="fill:#0396db;stroke-width:1.50711;stroke-linecap:square;paint-order:markers stroke fill"
               d="m 462.9147,253.55974 v 2.77503 h 2.97243 l 2.53111,-2.53111 0.67799,2.53111 h 10.46706 v -2.77503 z" /><path
               id="rect2673"
               style="fill:#0396db;stroke-width:1.17631;stroke-linecap:square;paint-order:markers stroke fill"
               transform="rotate(44.918779)"
               d="m 510.48026,-159.15794 h 10.14239 v 2.7748 h -10.14239 z" /><path
               id="rect2675"
               style="fill:#0396db;stroke-width:1.17631;stroke-linecap:square;paint-order:markers stroke fill"
               transform="rotate(-45.081221)"
               d="m 148.94963,517.90314 h 10.1424 v 2.7748 h -10.1424 z" /></g><g
             id="g2448"
             inkscape:label="Next Text"
             transform="matrix(0.85895814,0,0,0.85895814,-1.2029561,122.53183)"><path
               style="fill:#ffffff;fill-opacity:1;stroke:none;stroke-width:2.97609;stroke-linecap:square;stroke-dashoffset:3.16634;paint-order:markers stroke fill"
               d="m -378.24311,-212.46914 h 4.49155 v -12.81759 l 18.95253,12.87235 v -4.92983 l -3.57169,-2.06212 3.57169,-3.03204 v -10.57956 h -4.38214 v 13.15405 c -6.27363,-4.53828 -12.91927,-8.57283 -19.1101,-13.22481 z"
               id="path2436"
               sodipodi:nodetypes="cccccccccccc"
               inkscape:label="N letter" /><path
               style="fill:#ffffff;fill-opacity:1;stroke:none;stroke-width:3.06906;stroke-linecap:square;stroke-dashoffset:3.16634;paint-order:markers stroke fill"
               d="m -349.33814,-232.75809 v 8.92499 l 3.61515,2.93731 -3.61515,2.82435 0.0563,5.42279 19.88349,0.11284 -0.22575,-4.63199 h -15.59048 v -3.617 h 13.19531 v -4.1141 h -10.5448 l -2.59628,3.25535 v -7.04987 h 15.95703 v -4.27384 z"
               id="path2438"
               inkscape:label="E letter" /><path
               style="fill:#ffffff;fill-opacity:1;stroke:none;stroke-width:3.07488;stroke-linecap:square;stroke-dashoffset:3.16634;paint-order:markers stroke fill"
               d="m -323.74243,-232.64488 h 5.77267 l 7.47039,7.47044 7.72513,-7.72513 h 5.34814 l -12.21022,12.21018 h 3.72106 l 8.08594,8.08589 h -5.93537 l -7.0778,-7.0778 -7.0424,7.04243 h -5.57451 l 11.67251,-11.67254 h -3.57957 z"
               id="path2440"
               inkscape:label="X letter" /><path
               style="fill:#ffffff;fill-opacity:1;stroke:none;stroke-width:3.00369;stroke-linecap:square;stroke-dashoffset:3.16634;paint-order:markers stroke fill"
               d="m -291.96521,-232.67499 v 4.58855 h 12.32828 l -2.90236,2.90243 v 12.4665 h 4.50565 v -15.53478 h 9.01126 v -4.47801 h -6.74463 l -3.09586,3.48291 -2.76424,-3.53817 z"
               id="path2442"
               inkscape:label="T letter" /></g></g></g></g></g></svg>
