<?xml version="1.0" encoding="UTF-8" standalone="no"?>
<!-- Created with Inkscape (http://www.inkscape.org/) -->

<svg
   width="65.385262"
   height="55.988205"
   viewBox="0 0 17.29985 14.813545"
   version="1.1"
   id="svg49952"
   xml:space="preserve"
   inkscape:version="1.2.2 (732a01da63, 2022-12-09)"
   sodipodi:docname="namanGame2.svg"
   inkscape:export-filename="namanGame2.svg"
   inkscape:export-xdpi="96"
   inkscape:export-ydpi="96"
   xmlns:inkscape="http://www.inkscape.org/namespaces/inkscape"
   xmlns:sodipodi="http://sodipodi.sourceforge.net/DTD/sodipodi-0.dtd"
   xmlns="http://www.w3.org/2000/svg"
   xmlns:svg="http://www.w3.org/2000/svg"><sodipodi:namedview
     id="namedview49954"
     pagecolor="#ffffff"
     bordercolor="#000000"
     borderopacity="0.25"
     inkscape:showpageshadow="2"
     inkscape:pageopacity="0.0"
     inkscape:pagecheckerboard="0"
     inkscape:deskcolor="#d1d1d1"
     inkscape:document-units="mm"
     showgrid="false"
     inkscape:zoom="0.5"
     inkscape:cx="892"
     inkscape:cy="518"
     inkscape:window-width="1920"
     inkscape:window-height="974"
     inkscape:window-x="-11"
     inkscape:window-y="-11"
     inkscape:window-maximized="1"
     inkscape:current-layer="layer5" /><defs
     id="defs49949" /><g
     inkscape:label="Layer 1"
     inkscape:groupmode="layer"
     id="layer1"
     transform="translate(-254.12953,-114.71812)"><g
       id="g3197"><g
         inkscape:groupmode="layer"
         id="layer6"
         inkscape:label="Question Box"
         transform="translate(1.2100501e-4,-2.4599499e-4)"><path
           style="fill:#00a0ea;fill-opacity:1;stroke:#00a0ec;stroke-width:0.336083;stroke-opacity:1"
           d="m 260.91739,128.40208 c -0.49669,-0.51843 -0.90309,-1.04776 -0.90309,-1.17629 v -0.23366 h 3.33334 c 3.89194,0 4.25829,-0.10208 4.91313,-1.36839 0.75476,-1.1007 0.49173,-2.38771 0.49173,-3.66674 v -2.71591 c -0.0909,-0.3876 -0.0673,-1.35352 -0.0673,-1.35352 0,0 -0.72107,0.62795 -1.02024,0.93616 l -5.05381,5.09245 -5.05378,5.35029 h -1.12277 c -1.8364,-0.37976 -2.17643,-1.66906 -2.13366,-3.23841 v -3.89178 -3.89179 c 0.72361,-3.22601 3.92942,-3.4026 6.36664,-3.35141 h 2.32 c 0.83907,0.70319 2.8217,2.38595 2.8217,2.38595 0,0 1.50203,-1.83276 2.06205,-2.38225 h 1.44139 c 1.02627,0.007 2.20046,0.25871 1.86046,3.03642 -0.027,2.41159 0.20676,4.74303 0.005,7.35072 -0.17913,2.31575 -1.7778,4.29793 -3.70386,4.06079 h -2.8271 -2.82704 z m 4.64028,-10.92759 c -2.57711,-0.002 -5.15227,0.0716 -7.72794,0.14487 -0.89632,-0.0897 -1.16777,0.50229 -1.17627,1.38114 v 2.96002 c 0,1.62802 0.0971,3.21324 0.2159,3.5227 l 0.21589,0.56264 3.98514,-3.97477 c 1.34555,-1.16513 3.25768,-3.90909 4.48726,-4.59666 z"
           id="path46881"
           sodipodi:nodetypes="cccccccccccccccccccccscccccccccccc"
           inkscape:label="0 number" /></g></g></g></svg>
