<?xml version="1.0" encoding="UTF-8" standalone="no"?>
<!-- Created with Inkscape (http://www.inkscape.org/) -->

<svg
   width="443.41214"
   height="81.315468"
   viewBox="0 0 117.31946 21.514717"
   version="1.1"
   id="svg49952"
   xml:space="preserve"
   inkscape:version="1.2.2 (732a01da63, 2022-12-09)"
   sodipodi:docname="namanGame2.svg"
   inkscape:export-filename="namanGame2.svg"
   inkscape:export-xdpi="96"
   inkscape:export-ydpi="96"
   xmlns:inkscape="http://www.inkscape.org/namespaces/inkscape"
   xmlns:sodipodi="http://sodipodi.sourceforge.net/DTD/sodipodi-0.dtd"
   xmlns="http://www.w3.org/2000/svg"
   xmlns:svg="http://www.w3.org/2000/svg"><sodipodi:namedview
     id="namedview49954"
     pagecolor="#ffffff"
     bordercolor="#000000"
     borderopacity="0.25"
     inkscape:showpageshadow="2"
     inkscape:pageopacity="0.0"
     inkscape:pagecheckerboard="0"
     inkscape:deskcolor="#d1d1d1"
     inkscape:document-units="mm"
     showgrid="false"
     inkscape:zoom="0.5"
     inkscape:cx="892"
     inkscape:cy="518"
     inkscape:window-width="1920"
     inkscape:window-height="974"
     inkscape:window-x="-11"
     inkscape:window-y="-11"
     inkscape:window-maximized="1"
     inkscape:current-layer="layer5" /><defs
     id="defs49949" /><g
     inkscape:label="Layer 1"
     inkscape:groupmode="layer"
     id="layer1"
     transform="translate(-344.71393,-84.162456)"><g
       id="g3197"><g
         inkscape:groupmode="layer"
         id="layer4"
         inkscape:label="Option"
         transform="translate(-3.176614e-4,-2.5835622e-5)"><g
           id="g11678"
           transform="matrix(0.80979609,0,0,0.80979609,69.093429,22.903005)"><g
             id="g10126"
             transform="matrix(0.3337194,0,0,0.3337194,226.1172,41.426226)"><circle
               style="fill:none;fill-opacity:1;stroke:#00a0ec;stroke-width:0.64725;stroke-linecap:square;stroke-dasharray:none;stroke-dashoffset:3.16634;stroke-opacity:1"
               id="path8384"
               cx="382.13287"
               cy="142.35263"
               r="36.806" /><path
               id="circle9268"
               style="fill:none;stroke:#ffffff;stroke-width:6;stroke-linecap:square;stroke-dashoffset:3.16634"
               d="m 348.33344,156.92246 a 36.806,36.806 0 0 1 -3.00657,-14.56983 36.806,36.806 0 0 1 36.806,-36.806 36.806,36.806 0 0 1 0.98169,0.0131" /><path
               id="path10117"
               style="fill:none;stroke:#ffffff;stroke-width:6;stroke-linecap:square;stroke-dashoffset:3.16634"
               d="m 391.91892,177.83382 a 36.806,36.806 0 0 1 -9.78605,1.32481 36.806,36.806 0 0 1 -12.0332,-2.02262" /><path
               id="path10112"
               style="fill:none;stroke:#ffffff;stroke-width:6;stroke-linecap:square;stroke-dashoffset:3.16634"
               d="m 418.92168,141.22779 a 36.806,36.806 0 0 1 0.0172,1.12484 v 0 a 36.806,36.806 0 0 1 -5.38206,19.16292" /></g><path
             style="fill:#ffffff;fill-opacity:1;stroke:#ffffff;stroke-width:0.217;stroke-linecap:square;stroke-dasharray:none;stroke-dashoffset:3.16634;stroke-opacity:1"
             d="M 360.05112,99.510309 H 485.1251"
             id="path10212" /></g></g></g></g></svg>
