<?xml version="1.0" encoding="UTF-8" standalone="no"?>
<!-- Created with Inkscape (http://www.inkscape.org/) -->

<svg
   width="432.27893"
   height="48.887142"
   viewBox="0 0 114.3738 12.934723"
   version="1.1"
   id="svg49952"
   xml:space="preserve"
   inkscape:version="1.2.2 (732a01da63, 2022-12-09)"
   sodipodi:docname="namanGame2.svg"
   inkscape:export-filename="namanGame2.svg"
   inkscape:export-xdpi="96"
   inkscape:export-ydpi="96"
   xmlns:inkscape="http://www.inkscape.org/namespaces/inkscape"
   xmlns:sodipodi="http://sodipodi.sourceforge.net/DTD/sodipodi-0.dtd"
   xmlns="http://www.w3.org/2000/svg"
   xmlns:svg="http://www.w3.org/2000/svg"><sodipodi:namedview
     id="namedview49954"
     pagecolor="#ffffff"
     bordercolor="#000000"
     borderopacity="0.25"
     inkscape:showpageshadow="2"
     inkscape:pageopacity="0.0"
     inkscape:pagecheckerboard="0"
     inkscape:deskcolor="#d1d1d1"
     inkscape:document-units="mm"
     showgrid="false"
     inkscape:zoom="0.5"
     inkscape:cx="892"
     inkscape:cy="518"
     inkscape:window-width="1920"
     inkscape:window-height="974"
     inkscape:window-x="-11"
     inkscape:window-y="-11"
     inkscape:window-maximized="1"
     inkscape:current-layer="layer5" /><defs
     id="defs49949" /><g
     inkscape:label="Layer 1"
     inkscape:groupmode="layer"
     id="layer1"
     transform="translate(-106.30601,-112.17286)"><g
       id="g3197"><g
         inkscape:groupmode="layer"
         id="layer6"
         inkscape:label="Question Box"
         transform="translate(1.2100501e-4,-2.4599499e-4)"><g
           id="g47644"
           inkscape:label="Question"
           transform="matrix(1.1199242,0,0,1.1199242,4.288404,-21.630277)"
           style="fill:#00a0ea;fill-opacity:1"><path
             style="fill:#00a0ea;fill-opacity:1;stroke:none;stroke-width:0.384958;stroke-opacity:1"
             d="m 91.119394,128.13704 -0.0131,-2.77287 -0.01309,-2.77285 c 0.508059,-1.79802 0.856028,-2.30974 2.414976,-3.11592 l 4.206444,0.006 c 1.96904,0.003 4.859436,0.0623 4.859436,0.0623 1.42406,0.77014 1.61708,1.00842 2.04491,2.57997 l -0.0522,3.10147 v 2.77085 c -0.0568,0.70693 -0.84125,1.57188 -0.84125,1.57188 0,0 0.61923,0.91008 0.84125,1.45717 h -1.26181 -1.2618 l -0.68577,-0.80091 -0.68576,-0.80091 c 0.89468,-0.23483 1.71608,-0.58484 1.97034,-1.82607 v -2.32814 -2.32815 c -0.072,-0.95457 -0.48558,-1.56753 -1.53983,-1.53984 h -3.186496 -3.186502 c -1.129633,-0.0147 -1.451951,0.56851 -1.711138,1.19854 v 2.65107 2.65106 c 0.213283,0.91286 1.711138,1.19855 1.711138,1.19855 0,0 3.357852,-0.038 5.032282,0.0931 0.12585,1.27522 -0.10767,1.72877 -1.54648,1.80602 l -2.117279,-8.5e-4 -2.117276,-8.4e-4 c -1.891073,0.0209 -2.553706,-1.47503 -2.860965,-2.85986 z"
             id="path40969"
             sodipodi:nodetypes="ccccsccccccccccccccccccccccccc"
             inkscape:label="Q letter" /><path
             style="fill:#00a0ea;fill-opacity:1;stroke:none;stroke-width:0.312925;stroke-opacity:1"
             d="m 107.10379,128.31147 v -8.58975 c 0.62364,-0.0131 1.87101,-0.0145 1.87101,-0.0145 l 0.0102,3.68557 -0.65266,0.86918 -0.83272,0.86918 0.73758,0.10432 0.73756,0.10447 0.17327,1.5082 0.17327,1.5082 c 0.13779,0.33438 0.34522,0.60773 0.90517,0.57267 l 3.32928,0.004 3.32928,0.004 c 0.75042,0.0767 1.24715,-0.26518 1.35751,-1.09525 v -4.06799 -4.08804 l 1.68467,0.0201 v 4.64198 4.64198 c -0.12469,1.16493 -0.8527,1.72653 -2.04389,1.82494 l -4.2978,-0.007 -4.29778,-0.007 c -1.39298,-0.18785 -2.26952,-1.63012 -2.18399,-2.49119 z"
             id="path41252"
             sodipodi:nodetypes="cccccccccccccccccccccccc"
             inkscape:label="U letter" /><path
             style="fill:#00a0ea;fill-opacity:1;stroke:none;stroke-width:0.305047;stroke-opacity:1"
             d="m 122.43244,127.95828 c 0.52615,-0.51069 1.76036,-1.23653 1.76036,-1.23653 l 0.0698,2.02858 4.34692,0.0847 4.34694,0.0847 v 0.76262 0.76262 l -5.05162,0.0834 c -2.77835,0.0458 -5.31399,0.10577 -5.37926,-0.0444 -0.19375,-0.84667 -0.0933,-2.52557 -0.0933,-2.52557 z m 3.55609,-3.46188 h 2.66636 2.66635 l -0.0975,0.68636 -0.0975,0.68635 -3.12674,0.0869 -3.12673,0.087 z m -3.55609,-0.4408 v -2.06747 -2.06746 h 5.33833 5.33833 v 0.76262 0.76262 h -4.42319 -4.42319 v 1.98282 1.98281 z"
             id="path41655"
             inkscape:label="E letter"
             sodipodi:nodetypes="cccccccsccccccccccccccccccccccc" /><path
             style="fill:#00a0ea;fill-opacity:1;stroke-width:0.295049"
             d="m 135.58815,128.90032 v -0.64484 -0.64486 c 0.58593,0.34209 1.14695,0.92309 2.15681,1.18021 h 3.33695 3.33695 c 0.49607,-1.31901 0.35927,-1.71173 0.0335,-2.65545 h -1.92414 -1.92416 l 1.55484,-1.77031 h 1.31062 1.31061 c 0.88842,0.0403 1.44097,0.65348 1.72492,1.72491 0,0.90922 0,1.81845 0,2.72767 -0.13837,0.84543 -0.63438,1.31429 -1.44843,1.44843 h -4.09266 -4.09267 c -0.67782,-0.20511 -1.27194,-0.49393 -1.28306,-1.36576 z m 0,-4.29265 v -1.46244 -1.46244 c 0.14375,-0.84313 0.74066,-1.20464 1.44843,-1.44843 h 4.01065 4.01067 c 0.85271,0.10374 1.48548,0.345 1.44707,2.65545 h -0.72724 -0.72725 c 0.0709,-0.50803 0.026,-0.97196 -0.6415,-1.19866 l -3.41999,0.0829 -3.42,0.0829 c -0.62167,0.87369 -0.43867,1.55422 -0.20778,2.47413 0.85622,0.19529 1.60816,0.1164 2.50516,0.18132 l 0.0933,0.8114 0.0933,0.81139 h -1.32463 -1.32469 c -0.71217,-0.1049 -1.41649,-0.23964 -1.81551,-1.52771 z"
             id="path41681"
             sodipodi:nodetypes="ccccccccccccccccccccccccccccccccccccc"
             inkscape:label="S letter" /><g
             id="g45627"
             inkscape:label="T letter"
             transform="matrix(0.43962529,0,0,0.43962529,502.29006,122.81168)"
             style="fill:#00a0ea;fill-opacity:1"><path
               id="rect45377"
               style="fill:#00a0ea;fill-opacity:1;stroke:none;stroke-width:0.454421;stroke-linecap:square;stroke-dashoffset:3.16634;paint-order:markers stroke fill"
               d="m -803.64894,-5.3778573 v 3.5914054 h 23.13086 v -3.5914054 h -6.1075 l -2.73871,3.5868336 -2.73871,-3.5868336 z" /><path
               id="rect45379"
               style="fill:#00a0ea;fill-opacity:1;stroke:none;stroke-width:0.402;stroke-linecap:square;stroke-dashoffset:3.16634;paint-order:markers stroke fill"
               d="m -788.91322,-1.3019942 -3.65353,4.0338623 V 16.471598 h 3.65353 z" /></g><path
             id="rect45733"
             style="fill:#00a0ea;fill-opacity:1;stroke-width:0.559325;stroke-linecap:square;stroke-dashoffset:3.16634;paint-order:markers stroke fill"
             inkscape:label="I letter"
             d="m 161.63361,120.35328 h 1.78233 v 9.79388 h -1.78233 z" /><path
             style="fill:#00a0ea;fill-opacity:1;stroke-width:0.289057"
             d="m 168.33612,130.33104 c -1.14009,-0.11887 -1.78428,-0.97529 -2.23139,-1.8261 -0.23329,-1.00021 -0.1455,-2.08129 -0.17324,-3.11404 l 1.71448,-0.0131 v 1.03565 1.10099 c 0,0 0.11014,1.14849 0.82025,1.12221 h 3.30224 3.30224 c 0.83069,0.0423 0.77754,-0.44561 0.95794,-0.79345 v -2.54975 -2.54975 c -0.0524,-1.15921 -0.78936,-0.75361 -1.28487,-0.89995 h -2.90646 -2.90649 c -1.14328,0.52706 -1.23736,1.72527 -1.23736,1.72527 l -1.78183,1.56254 v -1.22467 c -0.17466,-2.03611 1.04789,-3.68592 2.57279,-3.7975 1.07676,-0.0789 3.6565,0 3.6565,0 h 3.65648 c 1.07999,0.0712 1.98802,0.37866 1.96558,1.9656 v 2.90068 2.90069 c -0.12003,1.88793 -1.09428,2.35697 -2.1421,2.49464 l -3.33708,0.0471 c -1.83539,0.0259 -3.61183,-0.0131 -3.94764,-0.0872 z"
             id="path46762"
             inkscape:label="O letter"
             sodipodi:nodetypes="ccccccccccccccccccsccccccscc" /><path
             style="fill:#00a0ea;fill-opacity:1;stroke-width:0.288886"
             d="m 180.24255,130.429 v -5.17879 -5.17881 h 0.40998 l 5.12772,3.18518 4.71775,3.18517 0.11378,-6.2693 2.47409,0.0189 0.13371,5.46601 -2.3601,0.99017 2.12626,1.48696 -0.0741,2.11212 -10.40176,-6.18154 0.0436,6.33897 -2.31105,0.025 z"
             id="path46856"
             sodipodi:nodetypes="cccccccccccccccc"
             inkscape:label="N letter" /></g></g></g></g></svg>
