<?xml version="1.0" encoding="UTF-8" standalone="no"?>
<!-- Created with Inkscape (http://www.inkscape.org/) -->

<svg
   width="237.84917"
   height="237.84911"
   viewBox="0 0 62.930925 62.930907"
   version="1.1"
   id="svg49952"
   xml:space="preserve"
   inkscape:version="1.2.2 (732a01da63, 2022-12-09)"
   sodipodi:docname="namanGame2.svg"
   inkscape:export-filename="namanGame2.svg"
   inkscape:export-xdpi="96"
   inkscape:export-ydpi="96"
   xmlns:inkscape="http://www.inkscape.org/namespaces/inkscape"
   xmlns:sodipodi="http://sodipodi.sourceforge.net/DTD/sodipodi-0.dtd"
   xmlns="http://www.w3.org/2000/svg"
   xmlns:svg="http://www.w3.org/2000/svg"><sodipodi:namedview
     id="namedview49954"
     pagecolor="#ffffff"
     bordercolor="#000000"
     borderopacity="0.25"
     inkscape:showpageshadow="2"
     inkscape:pageopacity="0.0"
     inkscape:pagecheckerboard="0"
     inkscape:deskcolor="#d1d1d1"
     inkscape:document-units="mm"
     showgrid="false"
     inkscape:zoom="0.5"
     inkscape:cx="892"
     inkscape:cy="518"
     inkscape:window-width="1920"
     inkscape:window-height="974"
     inkscape:window-x="-11"
     inkscape:window-y="-11"
     inkscape:window-maximized="1"
     inkscape:current-layer="layer5" /><defs
     id="defs49949" /><g
     inkscape:label="Layer 1"
     inkscape:groupmode="layer"
     id="layer1"
     transform="translate(-236.87474,-89.024081)"><g
       id="g3197"><g
         inkscape:groupmode="layer"
         id="layer6"
         inkscape:label="Question Box"
         transform="translate(1.2100501e-4,-2.4599499e-4)"><g
           id="g47111"
           transform="matrix(1.8823563,0,0,1.8823563,1801.0433,-65.264712)"
           style="stroke:#ff0118;stroke-opacity:1"><path
             id="path46983"
             style="fill:none;stroke:#00a0ec;stroke-width:0.2;stroke-linecap:square;stroke-dashoffset:3.16634;stroke-opacity:1;paint-order:markers stroke fill"
             d="M -815.62835,113.4483 A 14.830863,14.830863 0 0 1 -829.03093,99.862492" /><path
             id="path47084"
             style="fill:none;stroke:#00a0ec;stroke-width:0.2;stroke-linecap:square;stroke-dashoffset:3.16634;stroke-opacity:1;paint-order:markers stroke fill"
             d="m -799.42741,99.25655 a 14.830863,14.830863 0 0 1 -12.14174,14.01243" /><path
             id="path47092"
             style="fill:none;stroke:#00a0ec;stroke-width:0.2;stroke-linecap:square;stroke-dashoffset:3.16634;stroke-opacity:1;paint-order:markers stroke fill"
             d="m -812.701,83.93185 a 14.830863,14.830863 0 0 1 13.20282,13.193486" /><path
             id="path47076"
             style="fill:none;stroke:#00a0ec;stroke-width:0.2;stroke-linecap:square;stroke-dashoffset:3.16634;stroke-opacity:1;paint-order:markers stroke fill"
             d="m -829.06355,98.027521 a 14.830863,14.830863 0 0 1 14.22902,-14.164847" /><path
             id="circle46985"
             style="fill:none;stroke:#00a0ec;stroke-width:0.919;stroke-linecap:square;stroke-dashoffset:3.16634;stroke-opacity:1;paint-order:markers stroke fill"
             d="m -805.3471,112.28568 a 16.256495,16.256495 0 0 1 -8.90003,2.65271 16.256495,16.256495 0 0 1 -8.30998,-2.28445" /><path
             id="path47041"
             style="fill:none;stroke:#00a0ec;stroke-width:0.919;stroke-linecap:square;stroke-dashoffset:3.16634;stroke-opacity:1;paint-order:markers stroke fill"
             d="m -800.39952,90.166201 a 16.256495,16.256495 0 0 1 2.40888,8.515699 v 0 a 16.256495,16.256495 0 0 1 -1.53238,6.89013" /><path
             id="path47049"
             style="fill:none;stroke:#00a0ec;stroke-width:0.919;stroke-linecap:square;stroke-dashoffset:3.16634;stroke-opacity:1;paint-order:markers stroke fill"
             d="m -820.21475,83.560352 a 16.256495,16.256495 0 0 1 5.96762,-1.134946 16.256495,16.256495 0 0 1 6.31659,1.277369" /><path
             id="path47057"
             style="fill:none;stroke:#00a0ec;stroke-width:0.919;stroke-linecap:square;stroke-dashoffset:3.16634;stroke-opacity:1;paint-order:markers stroke fill"
             d="m -828.32193,106.81662 a 16.256495,16.256495 0 0 1 -2.1817,-8.13472 16.256495,16.256495 0 0 1 1.86436,-7.559098" /><path
             id="circle46987"
             style="fill:none;stroke:#00a0ec;stroke-width:0.729626;stroke-linecap:square;stroke-dashoffset:3.16634;stroke-opacity:1;paint-order:markers stroke fill"
             d="m -826.34411,103.18115 a 12.906594,12.906594 0 0 1 -0.80962,-4.49925 12.906594,12.906594 0 0 1 0.62222,-3.959091" /><path
             id="path47000"
             style="fill:none;stroke:#00a0ea;stroke-width:0.729626;stroke-linecap:square;stroke-dashoffset:3.16634;stroke-opacity:1;paint-order:markers stroke fill"
             d="m -811.19597,111.22265 a 12.906594,12.906594 0 0 1 -3.05116,0.36584 12.906594,12.906594 0 0 1 -1.00948,-0.0395" /><path
             id="path47026"
             style="fill:none;stroke:#00a0ec;stroke-width:0.729626;stroke-linecap:square;stroke-dashoffset:3.16634;stroke-opacity:1;paint-order:markers stroke fill"
             d="m -801.47541,96.820956 a 12.906594,12.906594 0 0 1 0.13487,1.860944 v 0 a 12.906594,12.906594 0 0 1 -0.20062,2.26678" /><path
             id="path47018"
             style="fill:none;stroke:#00a0ea;stroke-width:0.729626;stroke-linecap:square;stroke-dashoffset:3.16634;stroke-opacity:1;paint-order:markers stroke fill"
             d="m -817.84881,86.499566 c 1.55121,-0.634633 2.48168,-0.848977 3.77083,-0.859576 1.50014,-0.01233 2.74224,0.182457 4.40386,0.927984"
             sodipodi:nodetypes="cac" /><rect
             style="fill:#00a0ea;fill-opacity:1;stroke:#00a0ec;stroke-width:0.799145;stroke-linecap:square;stroke-dasharray:none;stroke-dashoffset:3.16634;stroke-opacity:1;paint-order:markers stroke fill"
             id="rect47062"
             width="2.9661729"
             height="1.0491129"
             x="-830.2262"
             y="98.420471" /><rect
             style="fill:#00a0ea;fill-opacity:1;stroke:#00a0ea;stroke-width:0.709442;stroke-linecap:square;stroke-dasharray:none;stroke-dashoffset:3.16634;stroke-opacity:1;paint-order:markers stroke fill"
             id="rect47071"
             width="1.1289626"
             height="2.7063236"
             x="-814.3324"
             y="82.748024" /></g></g></g></g></svg>
